HIERARCHY
ROOT Hips
{
	OFFSET 0.000000 0.000000 0.000000
	CHANNELS 6 Xposition Yposition Zposition Zrotation Yrotation Xrotation 
	JOINT LHipJoint
	{
		OFFSET 0.000000 0.000000 0.000000
		CHANNELS 3 Zrotation Yrotation Xrotation
		JOINT LeftUpLeg
		{
			OFFSET 1.363060 -1.794630 0.839290
			CHANNELS 3 Zrotation Yrotation Xrotation
			JOINT LeftLeg
			{
				OFFSET 2.448110 -6.726130 0.000000
				CHANNELS 3 Zrotation Yrotation Xrotation
				JOINT LeftFoot
				{
					OFFSET 2.562200 -7.039590 0.000000
					CHANNELS 3 Zrotation Yrotation Xrotation
					JOINT LeftToeBase
					{
						OFFSET 0.157640 -0.433110 2.322550
						CHANNELS 3 Zrotation Yrotation Xrotation
						End Site
						{
							OFFSET 0.000000 0.000000 0.000000
						}
					}
				}
			}
		}
	}
	JOINT RHipJoint
	{
		OFFSET 0.000000 0.000000 0.000000
		CHANNELS 3 Zrotation Yrotation Xrotation
		JOINT RightUpLeg
		{
			OFFSET -1.305520 -1.794630 0.839290
			CHANNELS 3 Zrotation Yrotation Xrotation
			JOINT RightLeg
			{
				OFFSET -2.542530 -6.985550 0.000000
				CHANNELS 3 Zrotation Yrotation Xrotation
				JOINT RightFoot
				{
					OFFSET -2.568260 -7.056230 0.000000
					CHANNELS 3 Zrotation Yrotation Xrotation
					JOINT RightToeBase
					{
						OFFSET -0.164730 -0.452590 2.363150
						CHANNELS 3 Zrotation Yrotation Xrotation
						End Site
						{
							OFFSET 0.000000 0.000000 0.000000
						}
					}
				}
			}
		}
	}
}
MOTION
Frames: 22
Frame Time: 0.008333
8.749439 17.367070 3.259915 -171.376926 -85.694096 -175.739851 -10.397655 1.209574 -0.161204 -10.805478 4.414075 -11.565440 -2.546864 -0.788232 7.622240 0.537074 1.712059 -8.093170 -0.087300 0.000000 -25.253700 9.394268 0.144264 -0.623233 7.559897 -3.142931 -36.100211 1.484961 -2.469510 34.439410 -0.998082 -4.147226 -1.074303 -0.859099 0.000000 -41.414800
8.611731 17.352738 3.256029 -172.209737 -85.769768 -174.960507 -10.416105 1.257881 -0.244531 -10.819272 4.708175 -10.732132 -2.573331 -0.816713 7.197779 0.504226 1.431614 -8.241082 -0.094600 0.000000 -25.624700 9.320114 0.195501 -0.479951 7.528859 -3.110600 -36.199725 1.637839 -2.242064 31.655598 -1.005934 -4.308250 -0.407226 -0.981300 -0.000001 -41.546300
8.473904 17.336415 3.250231 -173.483234 -85.864971 -173.736191 -10.429443 1.304044 -0.325848 -10.854472 4.952995 -9.896770 -2.599002 -0.844547 6.792398 0.476371 1.183516 -8.394647 -0.101000 0.000000 -25.989400 9.256767 0.245616 -0.335706 7.463522 -3.110814 -36.262389 1.791017 -1.999366 28.799506 -0.996352 -4.395492 0.312458 -1.100199 -0.000000 -41.673600
8.335786 17.318074 3.242591 -175.203962 -85.982166 -172.057331 -10.437217 1.347130 -0.404028 -10.910395 5.148659 -9.068378 -2.624334 -0.872067 6.417260 0.453662 0.965356 -8.567341 -0.107400 0.000000 -26.347700 9.204627 0.294859 -0.187986 7.364181 -3.138427 -36.297859 1.944704 -1.741906 25.889988 -0.966219 -4.391144 1.060537 -1.206100 -0.000000 -41.796000
8.197494 17.297681 3.233195 -177.422467 -86.119654 -169.878450 -10.438134 1.385501 -0.481820 -10.987813 5.296862 -8.237682 -2.649365 -0.899713 6.070498 0.436634 0.779958 -8.765764 -0.114700 0.000000 -26.705000 9.164545 0.345235 -0.039252 7.227685 -3.191012 -36.305582 2.097962 -1.471693 22.952702 -0.912998 -4.277676 1.810070 -1.287700 -0.000001 -41.918200
8.059018 17.275241 3.222150 179.820122 -86.275843 -167.162269 -10.430441 1.418162 -0.561498 -11.085931 5.404105 -7.400242 -2.674421 -0.927729 5.752941 0.425199 0.625593 -8.993741 -0.123200 0.000000 -27.068400 9.137414 0.398584 0.109016 7.052396 -3.265035 -36.287857 2.248704 -1.191684 20.017716 -0.835786 -4.043696 2.535937 -1.334500 -0.000001 -42.050900
7.920352 17.250827 3.209538 176.495887 -86.447043 -163.884470 -10.411335 1.445058 -0.645151 -11.202786 5.479171 -6.551084 -2.699772 -0.956163 5.463802 0.419013 0.499481 -9.250377 -0.133301 0.000000 -27.445800 9.124521 0.456921 0.255155 6.839039 -3.357073 -36.247178 2.394100 -0.905796 17.117920 -0.735048 -3.682184 3.213526 -1.337600 -0.000000 -42.210700
7.781452 17.224504 3.195455 172.618904 -86.628440 -160.061471 -10.377534 1.467611 -0.734382 -11.333773 5.535699 -5.694163 -2.726050 -0.984064 5.209485 0.416995 0.392558 -9.533655 -0.144600 0.000000 -27.844400 9.127477 0.522735 0.397965 6.592622 -3.463719 -36.187946 2.531065 -0.618137 14.283962 -0.612585 -3.192520 3.824270 -1.291500 0.000000 -42.419300
7.642264 17.196469 3.180056 168.239823 -86.808583 -155.748028 -10.324867 1.488452 -0.830844 -11.474882 5.580865 -4.819325 -2.752705 -1.010597 4.978832 0.419053 0.307311 -9.831253 -0.156901 0.000000 -28.269700 9.148376 0.600065 0.533056 6.319677 -3.583743 -36.109455 2.656733 -0.333403 11.544811 -0.470412 -2.574744 4.354957 -1.193099 -0.000000 -42.698600
7.502858 17.166879 3.163432 163.489392 -86.976303 -151.076767 -10.252135 1.511787 -0.933766 -11.619024 5.628349 -3.937689 -2.780008 -1.033500 4.779266 0.423721 0.233685 -10.136023 -0.169600 -0.000000 -28.724300 9.187612 0.691877 0.659231 6.032572 -3.714111 -36.017545 2.769625 -0.054930 8.920411 -0.311767 -1.838848 4.804301 -1.045400 0.000000 -43.074500
7.362965 17.135992 3.145695 158.540017 -87.118552 -146.217455 -10.161304 1.541953 -1.041210 -11.760392 5.685564 -3.055375 -2.807589 -1.050784 4.611613 0.429939 0.167366 -10.436963 -0.181801 0.000000 -29.208100 9.243425 0.800109 0.774306 5.743792 -3.853981 -35.916559 2.869823 0.214702 6.423459 -0.140179 -0.998670 5.180192 -0.854300 -0.000000 -43.568800
7.222535 17.104048 3.126980 153.589745 -87.223130 -141.369761 -10.057338 1.581423 -1.151528 -11.896025 5.753601 -2.170418 -2.834460 -1.061033 4.469498 0.437242 0.111005 -10.720650 -0.193100 -0.000000 -29.717200 9.311578 0.925246 0.873837 5.465929 -4.006669 -35.807788 2.958419 0.472951 4.062771 0.040566 -0.070814 5.499331 -0.627600 0.000000 -44.201500
7.081339 17.071308 3.107267 148.788738 -87.288559 -136.675468 -9.948126 1.631236 -1.259903 -12.021156 5.836064 -1.310182 -2.861121 -1.062881 4.372972 0.443800 0.052073 -10.986225 -0.202500 0.000000 -30.246700 9.385868 1.063368 0.961393 5.210352 -4.169158 -35.706872 3.036861 0.719393 1.836451 0.224404 0.911224 5.786285 -0.377900 0.000000 -44.974100
6.939250 17.037965 3.086684 144.287253 -87.313200 -132.284006 -9.839876 1.689999 -1.364446 -12.134837 5.923436 -0.468331 -2.886213 -1.056608 4.313637 0.449937 -0.001185 -11.224298 -0.210200 0.000000 -30.790400 9.460682 1.210743 1.033955 4.986127 -4.345362 -35.616071 3.106075 0.951991 -0.253428 0.405993 1.918217 6.065623 -0.115000 0.000000 -45.890000
6.796135 17.004222 3.065202 140.156676 -87.302522 -128.260268 -9.737656 1.755663 -1.461768 -12.235132 6.008331 0.341464 -2.909521 -1.042580 4.300660 0.455463 -0.049727 -11.437298 -0.216300 -0.000000 -31.343300 9.531475 1.361697 1.094555 4.799485 -4.531470 -35.547648 3.166176 1.169733 -2.206843 0.578518 2.907413 6.359419 0.149200 0.000000 -46.932200
6.651977 16.970211 3.042957 136.473004 -87.260752 -124.679702 -9.644421 1.825263 -1.551268 -12.321554 6.080214 1.125714 -2.929938 -1.021929 4.326237 0.461308 -0.084770 -11.624480 -0.221700 -0.000000 -31.904300 9.594797 1.511762 1.141222 4.657702 -4.729203 -35.508738 3.217709 1.369842 -4.009966 0.737016 3.846147 6.676748 0.406700 0.000000 -48.088100
6.506473 16.936089 3.019981 133.249213 -87.195727 -121.546387 -9.562038 1.896761 -1.630519 -12.392813 6.131995 1.873558 -2.947293 -0.995683 4.396795 0.467995 -0.105103 -11.794717 -0.227000 -0.000000 -32.476200 9.648583 1.655361 1.178580 4.561975 -4.928686 -35.512367 3.260548 1.551196 -5.651362 0.875729 4.689421 7.017781 0.645800 0.000000 -49.324900
6.359664 16.901948 2.996373 130.501634 -87.113058 -118.875510 -9.491058 1.967634 -1.699488 -12.449008 6.156945 2.585637 -2.961048 -0.965000 4.509155 0.476525 -0.105308 -11.954928 -0.233300 0.000000 -33.068200 9.691283 1.788703 1.207973 4.513104 -5.122439 -35.568668 3.295191 1.711804 -7.107831 0.990963 5.403336 7.365120 0.856300 -0.000000 -50.601900
6.211382 16.867934 2.972182 128.197240 -87.034263 -116.622030 -9.420922 2.034886 -1.760166 -12.486367 6.148938 3.251135 -2.972247 -0.932914 4.668146 0.487339 -0.086913 -12.115172 -0.241300 -0.000000 -33.692400 9.684358 1.909831 1.238748 4.481040 -5.188062 -36.841570 3.348877 1.642120 -5.971757 0.981544 6.006037 6.329216 1.024800 0.000000 -51.868200
6.061457 16.834148 2.947476 126.324814 -86.944790 -114.775964 -9.363251 2.099830 -1.809919 -12.510886 6.109786 3.871900 -2.979710 -0.897889 4.867909 0.501254 -0.044206 -12.279635 -0.251700 0.000000 -34.366700 9.672374 2.012295 1.271904 4.484336 -5.238572 -37.987842 3.394758 1.584873 -5.015267 0.948771 6.411472 5.463553 1.140400 0.000000 -53.066900
5.909928 16.800677 2.922427 124.891333 -86.846620 -113.349354 -9.318262 2.161288 -1.850921 -12.522801 6.042701 4.460030 -2.982879 -0.860754 5.095493 0.518516 0.025936 -12.444932 -0.264800 -0.000000 -35.115299 9.656683 2.095534 1.304918 4.521942 -5.275010 -38.946482 3.430235 1.549593 -4.327245 0.910470 6.618588 4.787626 1.196600 -0.000000 -54.141800
5.756702 16.767663 2.896919 123.817254 -86.742853 -112.260093 -9.284617 2.219949 -1.882161 -12.524355 5.949544 5.009203 -2.982298 -0.821747 5.352842 0.538632 0.119744 -12.609847 -0.280500 0.000000 -35.952200 9.638987 2.159315 1.342152 4.581538 -5.284908 -39.700533 3.452765 1.540562 -3.924665 0.876276 6.624175 4.278190 1.186800 0.000000 -55.018800
